<?xml version="1.0" encoding="UTF-8"?>
<svg xmlns="http://www.w3.org/2000/svg" version="1.1" viewBox="0 0 923.1 374.9">
  <defs>
    <style>
      .cls-1 {
        fill: #0058a3;
      }

      .cls-2 {
        fill: #ffdb00;
      }
    </style>
  </defs>
  <!-- Generator: Adobe Illustrator 28.7.1, SVG Export Plug-In . SVG Version: 1.2.0 Build 142)  -->
  <g>
    <g id="Layer_1">
      <path class="cls-1" d="M922.9,374.9H0V0h923.1v374.9h-.1Z"/>
      <path class="cls-2" d="M18,187.4c0,90.6,185.9,165.9,443.5,165.9s443.4-75.3,443.4-165.9S719.1,21.6,461.5,21.6,18,96.8,18,187.4Z"/>
      <path class="cls-1" d="M312.1,115.4c-2,4-2,7.8-2,11.8v49.6s26.6-34.5,32.7-42.7c4.6-6.1,10.3-14.7,10.3-18.7h86.8c-6,4-12.6,11.1-18,17.7-4.8,5.8-31.7,38.8-31.7,38.8,0,0,40.1,61,45.2,68.8,2.9,4.2,6.1,8.2,9.8,11.8h-99.9c0-4-3.8-12-8.1-18.4-4.2-6.3-27.1-41.1-27.1-41.1v47.8c0,4,0,7.8,2,11.8h-83.2c2-4,2-7.8,2-11.8v-113.5c0-4,0-7.8-2-11.8h83.2ZM620.1,115.4h-160.6c2,4,2,7.8,2,11.8v113.5c0,4,0,7.8-2,11.8h160.6v-38c-4,2-7.8,2-11.8,2h-67.6v-18h65v-29h-65v-18.1h67.6c4,0,7.8,0,11.8,1.9v-37.8ZM842.6,240.6c1.3,4.4,3.6,8.3,6.5,11.8h-87c.4-4-1.1-7.8-2.6-11.8,0,0-1.3-3.2-3.2-7.8l-.8-2h-50.1l-.8,2.1s-1.5,3.8-2.8,7.8c-1.3,4-2.8,7.8-2.2,11.8h-68.7c2.8-3.5,4.9-7.5,6.2-11.8l41.1-113.5c1.5-4,2.9-7.8,2.4-11.8h116c-1.1,4,1.1,7.8,2.5,11.8,3.4,8.6,40.6,105.7,43.5,113.4M744.5,201.9l-12.2-31.7c-1.1-2.9-2-6-2.6-9-.5,3.1-1.3,6.1-2.4,9-.4,1.3-5.6,15.2-11.5,31.7h28.7ZM187.4,127.1c0-4,0-7.8,2-11.8h-90.5c2,4,2,7.8,2,11.8v113.5c0,4,0,7.8-2,11.8h90.5c-2-4-2-7.8-2-11.8v-113.5ZM814.9,126.2c-.3,9.9,7.5,18.3,17.6,18.5,9.9.3,18.3-7.5,18.5-17.6v-.9c.1-9.8-7.5-17.9-17.3-18h-.7c-9.5-.4-17.6,7-18,16.5,0,0,0,.2,0,.3-.3.4-.3.8-.1,1.2M847.3,126.2c.3,7.9-6.1,14.7-14,14.8-7.9.3-14.7-6.1-14.8-14v-.9c-.3-7.7,5.7-14.2,13.4-14.4h1.1c7.8-.1,14.3,6.1,14.4,13.9v.7M841.7,137h-3.6l-4.2-7.7h-4.6v7.7h-3.2v-21.7h8.1c3.8.1,6.7,3.2,6.7,7s-1.5,5-3.8,6.3l4.6,8.3ZM833.7,126.2c2.1.1,4-1.5,4-3.6s-1.5-4-3.6-4h-4.8v7.7h4.4"/>
    </g>
  </g>
</svg>